<mxfile host="app.diagrams.net" agent="Mozilla/5.0 (Windows NT 10.0; Win64; x64) AppleWebKit/537.36 (KHTML, like Gecko) Chrome/129.0.0.0 Safari/537.36" version="24.7.14">
  <diagram name="Page-1" id="QrSy6-IG9_dJB0ElTmmv">
    <mxGraphModel dx="936" dy="511" grid="1" gridSize="10" guides="1" tooltips="1" connect="1" arrows="1" fold="1" page="1" pageScale="1" pageWidth="850" pageHeight="1100" math="0" shadow="0">
      <root>
        <mxCell id="0" />
        <mxCell id="1" parent="0" />
        <mxCell id="FcULWKKp87289iwvlf_I-4" value="LOAD BALANCER" style="text;html=1;align=center;verticalAlign=middle;whiteSpace=wrap;rounded=0;" vertex="1" parent="1">
          <mxGeometry x="428.5" y="214" width="126.5" height="30" as="geometry" />
        </mxCell>
        <mxCell id="FcULWKKp87289iwvlf_I-8" value="" style="fontColor=#0066CC;verticalAlign=top;verticalLabelPosition=bottom;labelPosition=center;align=center;html=1;outlineConnect=0;fillColor=#CCCCCC;strokeColor=#6881B3;gradientColor=none;gradientDirection=north;strokeWidth=2;shape=mxgraph.networks.users;" vertex="1" parent="1">
          <mxGeometry x="378.5" y="90" width="51.5" height="60" as="geometry" />
        </mxCell>
        <mxCell id="FcULWKKp87289iwvlf_I-9" value="" style="rounded=0;whiteSpace=wrap;html=1;" vertex="1" parent="1">
          <mxGeometry x="258.5" y="320" width="121.5" height="130" as="geometry" />
        </mxCell>
        <mxCell id="FcULWKKp87289iwvlf_I-91" value="" style="rounded=0;whiteSpace=wrap;html=1;" vertex="1" parent="1">
          <mxGeometry x="441" y="320" width="189" height="180" as="geometry" />
        </mxCell>
        <mxCell id="FcULWKKp87289iwvlf_I-94" value="" style="sketch=0;outlineConnect=0;fontColor=#232F3E;gradientColor=none;fillColor=#0b6ee0;strokeColor=none;dashed=0;verticalLabelPosition=bottom;verticalAlign=top;align=center;html=1;fontSize=12;fontStyle=0;aspect=fixed;pointerEvents=1;shape=mxgraph.aws4.servers;" vertex="1" parent="1">
          <mxGeometry x="270" y="330" width="40" height="40" as="geometry" />
        </mxCell>
        <mxCell id="FcULWKKp87289iwvlf_I-95" value="" style="sketch=0;outlineConnect=0;fontColor=#232F3E;gradientColor=none;fillColor=#0b6ee0;strokeColor=none;dashed=0;verticalLabelPosition=bottom;verticalAlign=top;align=center;html=1;fontSize=12;fontStyle=0;aspect=fixed;pointerEvents=1;shape=mxgraph.aws4.servers;" vertex="1" parent="1">
          <mxGeometry x="299.25" y="390" width="40" height="40" as="geometry" />
        </mxCell>
        <mxCell id="FcULWKKp87289iwvlf_I-96" value="" style="sketch=0;outlineConnect=0;fontColor=#232F3E;gradientColor=none;fillColor=#0b6ee0;strokeColor=none;dashed=0;verticalLabelPosition=bottom;verticalAlign=top;align=center;html=1;fontSize=12;fontStyle=0;aspect=fixed;pointerEvents=1;shape=mxgraph.aws4.servers;" vertex="1" parent="1">
          <mxGeometry x="330" y="330" width="40" height="40" as="geometry" />
        </mxCell>
        <mxCell id="FcULWKKp87289iwvlf_I-97" value="" style="rounded=0;whiteSpace=wrap;html=1;dashed=1;" vertex="1" parent="1">
          <mxGeometry x="530" y="338" width="90" height="110" as="geometry" />
        </mxCell>
        <mxCell id="FcULWKKp87289iwvlf_I-98" value="&lt;b&gt;CANARY DEPLOYMENT&lt;/b&gt;" style="text;html=1;align=center;verticalAlign=middle;whiteSpace=wrap;rounded=0;" vertex="1" parent="1">
          <mxGeometry x="324.25" y="30" width="160" height="30" as="geometry" />
        </mxCell>
        <mxCell id="FcULWKKp87289iwvlf_I-99" value="Users" style="text;html=1;align=center;verticalAlign=middle;whiteSpace=wrap;rounded=0;" vertex="1" parent="1">
          <mxGeometry x="341" y="150" width="126.5" height="30" as="geometry" />
        </mxCell>
        <mxCell id="FcULWKKp87289iwvlf_I-100" value="" style="sketch=0;outlineConnect=0;fontColor=#232F3E;gradientColor=none;fillColor=#0b6ee0;strokeColor=none;dashed=0;verticalLabelPosition=bottom;verticalAlign=top;align=center;html=1;fontSize=12;fontStyle=0;aspect=fixed;pointerEvents=1;shape=mxgraph.aws4.servers;" vertex="1" parent="1">
          <mxGeometry x="557" y="348" width="40" height="40" as="geometry" />
        </mxCell>
        <mxCell id="FcULWKKp87289iwvlf_I-101" value="" style="sketch=0;outlineConnect=0;fontColor=#232F3E;gradientColor=none;fillColor=#0b6ee0;strokeColor=none;dashed=0;verticalLabelPosition=bottom;verticalAlign=top;align=center;html=1;fontSize=12;fontStyle=0;aspect=fixed;pointerEvents=1;shape=mxgraph.aws4.servers;" vertex="1" parent="1">
          <mxGeometry x="555" y="398" width="40" height="40" as="geometry" />
        </mxCell>
        <mxCell id="FcULWKKp87289iwvlf_I-102" value="" style="sketch=0;outlineConnect=0;fontColor=#232F3E;gradientColor=none;fillColor=#00FF00;strokeColor=none;dashed=0;verticalLabelPosition=bottom;verticalAlign=top;align=center;html=1;fontSize=12;fontStyle=0;aspect=fixed;pointerEvents=1;shape=mxgraph.aws4.servers;" vertex="1" parent="1">
          <mxGeometry x="467.5" y="340" width="40" height="40" as="geometry" />
        </mxCell>
        <mxCell id="FcULWKKp87289iwvlf_I-103" value="EU Markets" style="text;html=1;align=center;verticalAlign=middle;whiteSpace=wrap;rounded=0;" vertex="1" parent="1">
          <mxGeometry x="435" y="390" width="100" height="25" as="geometry" />
        </mxCell>
        <mxCell id="FcULWKKp87289iwvlf_I-104" style="edgeStyle=orthogonalEdgeStyle;rounded=0;orthogonalLoop=1;jettySize=auto;html=1;exitX=0.5;exitY=1;exitDx=0;exitDy=0;" edge="1" parent="1" source="FcULWKKp87289iwvlf_I-103" target="FcULWKKp87289iwvlf_I-103">
          <mxGeometry relative="1" as="geometry" />
        </mxCell>
        <mxCell id="FcULWKKp87289iwvlf_I-105" value="US,Canada &amp;amp; Others" style="text;html=1;align=center;verticalAlign=middle;whiteSpace=wrap;rounded=0;" vertex="1" parent="1">
          <mxGeometry x="527" y="460" width="100" height="25" as="geometry" />
        </mxCell>
      </root>
    </mxGraphModel>
  </diagram>
</mxfile>
